<svg xmlns="http://www.w3.org/2000/svg" width="16.06" height="16.06" viewBox="0 0 16.06 16.06">
  <defs>
    <style>
      .cls-1 {
        fill: #a41196;
        fill-rule: evenodd;
      }
    </style>
  </defs>
  <path id="Calendar" class="cls-1" d="M1015.06,6438H1001a1,1,0,0,1-1-1v-12.55a1,1,0,0,1,1-1.01h14.06a1,1,0,0,1,1,1.01V6437A1,1,0,0,1,1015.06,6438Zm0-13.55H1001V6437h14.06v-12.55Zm-9.04.5a0.5,0.5,0,0,1-.5.5h0a0.5,0.5,0,0,1-.5-0.5v-2.51a0.5,0.5,0,0,1,.5-0.5h0a0.5,0.5,0,0,1,.5.5v2.51Zm5.02,0a0.5,0.5,0,0,1-.5.5h0a0.5,0.5,0,0,1-.5-0.5v-2.51a0.5,0.5,0,0,1,.5-0.5h0a0.5,0.5,0,0,1,.5.5v2.51Zm0.5,3.01h1.01a0.5,0.5,0,0,1,.5.5v1.01a0.5,0.5,0,0,1-.5.5h-1.01a0.508,0.508,0,0,1-.5-0.5v-1.01A0.508,0.508,0,0,1,1011.54,6427.96Zm0,4.02h1.01a0.5,0.5,0,0,1,.5.5v1a0.5,0.5,0,0,1-.5.5h-1.01a0.5,0.5,0,0,1-.5-0.5v-1A0.5,0.5,0,0,1,1011.54,6431.98Zm-4.01,0h1a0.5,0.5,0,0,1,.51.5v1a0.5,0.5,0,0,1-.51.5h-1a0.5,0.5,0,0,1-.5-0.5v-1A0.5,0.5,0,0,1,1007.53,6431.98Zm0-4.02h1a0.51,0.51,0,0,1,.51.5v1.01a0.51,0.51,0,0,1-.51.5h-1a0.5,0.5,0,0,1-.5-0.5v-1.01A0.5,0.5,0,0,1,1007.53,6427.96Zm-4.02,0h1.01a0.508,0.508,0,0,1,.5.5v1.01a0.508,0.508,0,0,1-.5.5h-1.01a0.508,0.508,0,0,1-.5-0.5v-1.01A0.508,0.508,0,0,1,1003.51,6427.96Zm0,4.02h1.01a0.5,0.5,0,0,1,.5.5v1a0.5,0.5,0,0,1-.5.5h-1.01a0.5,0.5,0,0,1-.5-0.5v-1A0.5,0.5,0,0,1,1003.51,6431.98Z" transform="translate(-1000 -6421.94)"/>
</svg>
