<?xml version="1.0"?>
<svg xmlns="http://www.w3.org/2000/svg" width="512" height="512" viewBox="0 0 128 128"><style>path { fill: #a41196 }</style><g><path d="M58.917,20.25h7.75a1.75,1.75,0,0,0,0-3.5h-7.75a1.75,1.75,0,0,0,0,3.5Z"/><path d="M21.5,77.244H48.333a1.75,1.75,0,0,0,0-3.5H21.5a1.75,1.75,0,0,0,0,3.5Z"/><path d="M21.5,86.244H48.333a1.75,1.75,0,0,0,0-3.5H21.5a1.75,1.75,0,0,0,0,3.5Z"/><path d="M21.5,95.244H48.333a1.75,1.75,0,0,0,0-3.5H21.5a1.75,1.75,0,0,0,0,3.5Z"/><path d="M21.5,104.244H48.333a1.75,1.75,0,0,0,0-3.5H21.5a1.75,1.75,0,0,0,0,3.5Z"/><path d="M55.974,77.244H82.808a1.75,1.75,0,1,0,0-3.5H55.974a1.75,1.75,0,1,0,0,3.5Z"/><path d="M55.974,86.244H82.808a1.75,1.75,0,1,0,0-3.5H55.974a1.75,1.75,0,1,0,0,3.5Z"/><path d="M55.974,95.244H82.808a1.75,1.75,0,1,0,0-3.5H55.974a1.75,1.75,0,1,0,0,3.5Z"/><path d="M55.974,104.244H82.808a1.75,1.75,0,1,0,0-3.5H55.974a1.75,1.75,0,1,0,0,3.5Z"/><path d="M84.066,29.792a15.3,15.3,0,1,0,10.818,4.481A15.2,15.2,0,0,0,84.066,29.792Zm8.343,23.643a11.8,11.8,0,1,1,3.456-8.344A11.722,11.722,0,0,1,92.409,53.435Z"/><path d="M121.858,76.167,107.787,62.1a1.8,1.8,0,0,0-2.475,0l-.881.881L100.3,58.849A21.3,21.3,0,0,0,99.56,30.51V6.5a1.751,1.751,0,0,0-1.75-1.75H6.5A1.751,1.751,0,0,0,4.75,6.5v115a1.751,1.751,0,0,0,1.75,1.75H97.81a1.751,1.751,0,0,0,1.75-1.75V63.055l2.4,2.4-.886.886a1.749,1.749,0,0,0,0,2.475l14.072,14.072a4.749,4.749,0,1,0,6.716-6.717Zm-25.194-18.5-.011.009-.011.013a17.8,17.8,0,1,1,.022-.022Zm-6.6-33a21.3,21.3,0,1,0,0,40.87v48.22H14.25V14.25H90.06ZM8.25,119.75V8.25H96.06V27.505a20.921,20.921,0,0,0-2.5-1.462V12.5a1.751,1.751,0,0,0-1.75-1.75H12.5a1.751,1.751,0,0,0-1.75,1.75v103a1.751,1.751,0,0,0,1.75,1.75H91.81a1.751,1.751,0,0,0,1.75-1.75V64.146a20.942,20.942,0,0,0,2.5-1.459V119.75ZM119.384,80.409a1.252,1.252,0,0,1-1.768,0L104.782,67.575l1.767-1.768,12.835,12.835a1.249,1.249,0,0,1,0,1.767Z"/><path d="M21.5,55.917h6a1.751,1.751,0,0,0,1.75-1.75V28.5a1.751,1.751,0,0,0-1.75-1.75h-6a1.751,1.751,0,0,0-1.75,1.75V54.167A1.751,1.751,0,0,0,21.5,55.917ZM23.25,30.25h2.5V52.417h-2.5Z"/><path d="M45.5,55.917h6a1.751,1.751,0,0,0,1.75-1.75V32.125a1.751,1.751,0,0,0-1.75-1.75h-6a1.751,1.751,0,0,0-1.75,1.75V54.167A1.751,1.751,0,0,0,45.5,55.917Zm1.75-22.042h2.5V52.417h-2.5Z"/><path d="M33.5,55.917h6a1.751,1.751,0,0,0,1.75-1.75V36.75A1.751,1.751,0,0,0,39.5,35h-6a1.751,1.751,0,0,0-1.75,1.75V54.167A1.751,1.751,0,0,0,33.5,55.917ZM35.25,38.5h2.5V52.417h-2.5Z"/></g></svg>
