<svg xmlns="http://www.w3.org/2000/svg" width="12.531" height="14.187" viewBox="0 0 12.531 14.187">
  <defs>
    <style>
      .cls-1 {
        fill: #1b1b1b;
      }
    </style>
  </defs>
  <path id="Refresh" class="cls-1" d="M524.508,494.65l-1.118-1.733a0.319,0.319,0,0,1,.059-0.448l0.114-.07a0.333,0.333,0,0,1,.441.118l1.277,2,0.006,0.006,0.082,0.135a0.3,0.3,0,0,1-.114.424l-0.138.076a0.069,0.069,0,0,0-.008,0l-2.068,1.059a0.287,0.287,0,0,1-.4-0.119l-0.044-.113a0.3,0.3,0,0,1,.113-0.422Zm0.294,0.5a0.275,0.275,0,0,1-.041,0,6.112,6.112,0,0,1-4.856-3.273,6.066,6.066,0,0,1-.4-4.657,6.135,6.135,0,0,1,3.056-3.572,0.431,0.431,0,1,1,.4.766,5.277,5.277,0,0,0-2.63,3.068,5.244,5.244,0,0,0,3.669,6.66,5.341,5.341,0,0,0,.842.149A0.431,0.431,0,0,1,524.8,495.151Zm3.458-.382a0.431,0.431,0,0,1-.2-0.814,5.254,5.254,0,0,0-1.038-9.728,5.321,5.321,0,0,0-.842-0.149,0.431,0.431,0,1,1,.08-0.859,6.123,6.123,0,0,1,.981.173,6.113,6.113,0,0,1,1.216,11.329A0.431,0.431,0,0,1,528.26,494.769Zm-2.069-11.107,1.117,1.733a0.321,0.321,0,0,1-.072.449l-0.1.07a0.334,0.334,0,0,1-.441-0.119l-1.277-2a0.034,0.034,0,0,1-.006-0.006l-0.082-.135a0.3,0.3,0,0,1-.034-0.236,0.3,0.3,0,0,1,.147-0.188l0.139-.076a0.019,0.019,0,0,0,.008,0l2.068-1.058a0.334,0.334,0,0,1,.441.118l0.044,0.113a0.315,0.315,0,0,1-.154.422Z" transform="translate(-519.219 -482.063)"/>
</svg>
