<svg id="Capa_1" enable-background="new 0 0 512 512" height="512" viewBox="0 0 512 512" width="512" xmlns="http://www.w3.org/2000/svg"><style>path { fill: #fff; }</style><g><path d="m371.795 374.587v-66.133c0-11.827-9.623-21.45-21.45-21.45s-21.45 9.623-21.45 21.45v66.133c0 11.827 9.622 21.45 21.45 21.45s21.45-9.623 21.45-21.45zm-27.899 0v-66.133c0-3.556 2.894-6.45 6.45-6.45 3.557 0 6.45 2.894 6.45 6.45v66.133c0 3.556-2.894 6.45-6.45 6.45-3.557-.001-6.45-2.894-6.45-6.45z"/><path d="m277.45 374.587v-66.133c0-11.827-9.622-21.45-21.45-21.45s-21.45 9.623-21.45 21.45v66.133c0 11.827 9.622 21.45 21.45 21.45s21.45-9.623 21.45-21.45zm-27.9 0v-66.133c0-3.556 2.894-6.45 6.45-6.45s6.45 2.894 6.45 6.45v66.133c0 3.556-2.894 6.45-6.45 6.45s-6.45-2.894-6.45-6.45z"/><path d="m183.104 374.587v-66.133c0-11.827-9.622-21.45-21.45-21.45s-21.45 9.623-21.45 21.45v66.133c0 11.827 9.623 21.45 21.45 21.45s21.45-9.623 21.45-21.45zm-27.899 0v-66.133c0-3.556 2.894-6.45 6.45-6.45s6.45 2.894 6.45 6.45v66.133c0 3.556-2.894 6.45-6.45 6.45-3.557-.001-6.45-2.894-6.45-6.45z"/><path d="m493.642 186.192h-110.193l-29.255-61.557c-1.778-3.741-6.252-5.333-9.993-3.555s-5.333 6.252-3.555 9.993l26.195 55.119h-18.383l-63.636-133.851c-.952-2-1.066-4.251-.323-6.34.744-2.089 2.255-3.762 4.263-4.715 2.003-.953 4.257-1.069 6.347-.326 2.086.742 3.757 2.251 4.707 4.253l25.46 53.55c1.778 3.741 6.253 5.333 9.994 3.553 3.741-1.778 5.332-6.253 3.553-9.994l-25.458-53.546c-2.667-5.62-7.366-9.864-13.229-11.95-5.866-2.087-12.195-1.763-17.812.91-5.623 2.668-9.868 7.368-11.956 13.233-2.089 5.867-1.766 12.194.908 17.813l60.573 127.408h-151.698l60.572-127.405c2.675-5.622 2.998-11.949.909-17.815-2.088-5.865-6.333-10.564-11.949-13.23-5.624-2.676-11.952-3.001-17.819-.913-5.864 2.085-10.562 6.33-13.227 11.945l-70.085 147.418h-110.194c-10.123.002-18.358 8.237-18.358 18.359v20.56c0 10.123 8.235 18.358 18.358 18.358h21.071l9.034 72.243c.475 3.794 3.705 6.57 7.433 6.57.31 0 .624-.02.94-.059 4.11-.514 7.025-4.263 6.511-8.373l-8.802-70.381h232.522c4.142 0 7.5-3.358 7.5-7.5s-3.358-7.5-7.5-7.5h-268.709c-1.852 0-3.358-1.506-3.358-3.358v-20.56c0-1.852 1.506-3.358 3.358-3.358h475.284c1.852 0 3.358 1.506 3.358 3.358v20.56c0 1.852-1.506 3.358-3.358 3.358h-171.575c-4.142 0-7.5 3.358-7.5 7.5s3.358 7.5 7.5 7.5h135.388l-24.038 192.221c-.277 2.215-2.169 3.885-4.401 3.885h-346.031c-2.232 0-4.124-1.67-4.401-3.885l-10.884-87.032c-.513-4.11-4.257-7.028-8.373-6.511-4.11.514-7.025 4.262-6.511 8.373l10.884 87.031c1.214 9.705 9.505 17.023 19.285 17.023h3.41v12.099c0 10.951 8.909 19.861 19.86 19.861h52.364c6.697 0 12.896-3.338 16.582-8.929l15.183-23.03h131.233l15.183 23.03c3.686 5.591 9.885 8.929 16.582 8.929h52.364c10.951 0 19.86-8.91 19.86-19.861v-12.099h3.41c9.78 0 18.071-7.318 19.285-17.023l24.271-194.082h21.071c10.123 0 18.358-8.235 18.358-18.358v-20.56c-.001-10.122-8.236-18.357-18.359-18.357zm-281.456-140.983c.948-1.998 2.619-3.507 4.705-4.249 2.09-.744 4.343-.627 6.354.329 2.001.95 3.513 2.624 4.256 4.712.744 2.088.629 4.34-.324 6.342l-63.635 133.848h-18.381zm-49.509 424.138c-.902 1.368-2.419 2.185-4.058 2.185h-52.364c-2.68 0-4.86-2.181-4.86-4.861v-12.099h71.023zm247.928-2.675c0 2.68-2.18 4.861-4.86 4.861h-52.364c-1.639 0-3.156-.817-4.058-2.185l-9.74-14.774h71.023v12.098z"/></g></svg>