<svg 
 xmlns="http://www.w3.org/2000/svg"
 xmlns:xlink="http://www.w3.org/1999/xlink"
 width="16px" height="9px">
<defs>
<linearGradient id="PSgrad_0" x1="0%" x2="75.471%" y1="65.606%" y2="0%">
  <stop offset="1%" stop-color="rgb(72,17,115)" stop-opacity="1" />
  <stop offset="100%" stop-color="rgb(164,17,150)" stop-opacity="1" />
</linearGradient>

</defs>
<path fill-rule="evenodd"  fill="rgb(255, 255, 255)"
 d="M15.675,1.957 L9.311,8.321 C9.024,8.608 8.606,8.680 8.250,8.545 C7.893,8.680 7.476,8.608 7.189,8.321 L0.825,1.957 C0.435,1.566 0.435,0.933 0.825,0.543 C1.216,0.152 1.849,0.152 2.240,0.543 L8.250,6.553 L14.260,0.543 C14.651,0.152 15.284,0.152 15.675,0.543 C16.065,0.933 16.065,1.566 15.675,1.957 Z"/>
<path fill="url(#PSgrad_0)"
 d="M15.675,1.957 L9.311,8.321 C9.024,8.608 8.606,8.680 8.250,8.545 C7.893,8.680 7.476,8.608 7.189,8.321 L0.825,1.957 C0.435,1.566 0.435,0.933 0.825,0.543 C1.216,0.152 1.849,0.152 2.240,0.543 L8.250,6.553 L14.260,0.543 C14.651,0.152 15.284,0.152 15.675,0.543 C16.065,0.933 16.065,1.566 15.675,1.957 Z"/>
</svg>